<mxfile host="65bd71144e" scale="1" border="20">
    <diagram id="CmqDjoA5nZAMnSaOBfiB" name="Page-1">
        <mxGraphModel dx="918" dy="962" grid="1" gridSize="10" guides="1" tooltips="1" connect="1" arrows="1" fold="1" page="1" pageScale="1" pageWidth="850" pageHeight="1100" math="0" shadow="0">
            <root>
                <mxCell id="0"/>
                <mxCell id="1" parent="0"/>
                <mxCell id="5" value="" style="edgeStyle=none;html=1;" parent="1" source="3" target="4" edge="1">
                    <mxGeometry relative="1" as="geometry"/>
                </mxCell>
                <mxCell id="3" value="i = lookup_table[0] - 1" style="whiteSpace=wrap;html=1;" parent="1" vertex="1">
                    <mxGeometry x="239" y="39" width="120" height="60" as="geometry"/>
                </mxCell>
                <mxCell id="7" value="" style="edgeStyle=none;html=1;" parent="1" source="4" target="6" edge="1">
                    <mxGeometry relative="1" as="geometry"/>
                </mxCell>
                <mxCell id="4" value="count = 0" style="whiteSpace=wrap;html=1;" parent="1" vertex="1">
                    <mxGeometry x="439" y="39" width="120" height="60" as="geometry"/>
                </mxCell>
                <mxCell id="11" value="" style="edgeStyle=none;html=1;" edge="1" parent="1" source="6" target="10">
                    <mxGeometry relative="1" as="geometry"/>
                </mxCell>
                <mxCell id="12" value="Ja" style="edgeLabel;html=1;align=center;verticalAlign=middle;resizable=0;points=[];" vertex="1" connectable="0" parent="11">
                    <mxGeometry x="0.225" relative="1" as="geometry">
                        <mxPoint as="offset"/>
                    </mxGeometry>
                </mxCell>
                <mxCell id="14" value="Nee" style="edgeStyle=none;html=1;" edge="1" parent="1" source="6" target="13">
                    <mxGeometry relative="1" as="geometry"/>
                </mxCell>
                <mxCell id="6" value="Is lookup_table[count] gelijk aan 0?" style="whiteSpace=wrap;html=1;" parent="1" vertex="1">
                    <mxGeometry x="439" y="179" width="120" height="60" as="geometry"/>
                </mxCell>
                <mxCell id="10" value="Geef de waarde van i terug" style="whiteSpace=wrap;html=1;" vertex="1" parent="1">
                    <mxGeometry x="639" y="179" width="120" height="60" as="geometry"/>
                </mxCell>
                <mxCell id="16" value="Nee" style="edgeStyle=none;html=1;" edge="1" parent="1" source="13" target="15">
                    <mxGeometry relative="1" as="geometry"/>
                </mxCell>
                <mxCell id="20" value="Ja" style="edgeStyle=none;html=1;" edge="1" parent="1" source="13" target="19">
                    <mxGeometry relative="1" as="geometry"/>
                </mxCell>
                <mxCell id="13" value="Is het gevraagde getal gelijk aan numArray[i]?" style="whiteSpace=wrap;html=1;" vertex="1" parent="1">
                    <mxGeometry x="239" y="179" width="120" height="60" as="geometry"/>
                </mxCell>
                <mxCell id="18" value="Nee" style="edgeStyle=none;html=1;" edge="1" parent="1" source="15" target="17">
                    <mxGeometry relative="1" as="geometry"/>
                </mxCell>
                <mxCell id="22" value="Ja" style="edgeStyle=none;html=1;" edge="1" parent="1" source="15" target="21">
                    <mxGeometry relative="1" as="geometry"/>
                </mxCell>
                <mxCell id="15" value="Is het gevraagde getal kleiner dan numArray[i]?" style="whiteSpace=wrap;html=1;" vertex="1" parent="1">
                    <mxGeometry x="239" y="319" width="120" height="60" as="geometry"/>
                </mxCell>
                <mxCell id="24" style="edgeStyle=none;html=1;exitX=1;exitY=0.5;exitDx=0;exitDy=0;endArrow=none;endFill=0;" edge="1" parent="1" source="17">
                    <mxGeometry relative="1" as="geometry">
                        <mxPoint x="600" y="489" as="targetPoint"/>
                    </mxGeometry>
                </mxCell>
                <mxCell id="17" value="count = count + 1&lt;br&gt;i = i + lookup_table[count]" style="whiteSpace=wrap;html=1;" vertex="1" parent="1">
                    <mxGeometry x="239" y="459" width="120" height="60" as="geometry"/>
                </mxCell>
                <mxCell id="23" style="edgeStyle=none;html=1;exitX=0.5;exitY=0;exitDx=0;exitDy=0;entryX=0.5;entryY=1;entryDx=0;entryDy=0;movable=1;resizable=1;rotatable=1;deletable=1;editable=1;connectable=1;" edge="1" parent="1" source="21" target="6">
                    <mxGeometry relative="1" as="geometry">
                        <Array as="points"/>
                    </mxGeometry>
                </mxCell>
                <mxCell id="19" value="Geef de waarde van i terug" style="whiteSpace=wrap;html=1;" vertex="1" parent="1">
                    <mxGeometry x="39" y="179" width="120" height="60" as="geometry"/>
                </mxCell>
                <mxCell id="21" value="count = count + 1&lt;br&gt;i = i - lookup_table[count]" style="whiteSpace=wrap;html=1;" vertex="1" parent="1">
                    <mxGeometry x="439" y="319" width="120" height="60" as="geometry"/>
                </mxCell>
                <mxCell id="25" value="" style="edgeStyle=none;orthogonalLoop=1;jettySize=auto;html=1;endArrow=none;endFill=0;" edge="1" parent="1">
                    <mxGeometry width="100" relative="1" as="geometry">
                        <mxPoint x="600" y="490" as="sourcePoint"/>
                        <mxPoint x="600" y="280" as="targetPoint"/>
                        <Array as="points"/>
                    </mxGeometry>
                </mxCell>
                <mxCell id="26" value="" style="edgeStyle=none;orthogonalLoop=1;jettySize=auto;html=1;endArrow=none;endFill=0;labelBackgroundColor=none;" edge="1" parent="1">
                    <mxGeometry width="100" relative="1" as="geometry">
                        <mxPoint x="600" y="280" as="sourcePoint"/>
                        <mxPoint x="500" y="280" as="targetPoint"/>
                        <Array as="points"/>
                    </mxGeometry>
                </mxCell>
            </root>
        </mxGraphModel>
    </diagram>
</mxfile>